# xmcd
#
# Track frame offsets:
#	152
#	14617
#	34195
#	51245
#	67485
#	85537
#	98720
#	117830
#	142240
#	159740
#
# Disc length: 2230 seconds
#
# Revision: 1
# Processed by: cddbd v1.4PL0 Copyright (c) Steve Scherf et al.
# Submitted via: audiograbber 1.82.02
#
DISCID=8e08b40a
DTITLE=Lonesome Val - Lonesome Val
DYEAR=1900
DGENRE=Country
TTITLE0=To Be Young
TTITLE1=You Won't Say You Love Me
TTITLE2=Hold On To Me
TTITLE3=Tiny Homes
TTITLE4=It Ain't Me
TTITLE5=Wonderful Life
TTITLE6=Front Porch
TTITLE7=Quiet Desperation
TTITLE8=Lord Help Me
TTITLE9=Lay My Head
EXTD=
EXTT0=
EXTT1=
EXTT2=
EXTT3=
EXTT4=
EXTT5=
EXTT6=
EXTT7=
EXTT8=
EXTT9=
PLAYORDER=
